        <svg
          xmlns="http://www.w3.org/2000/svg"
          width="190"
          height="72"
          viewBox="0 0 190 72"
          fill="none"
        >
          <path
            fill-rule="evenodd"
            clip-rule="evenodd"
            d="M23.2068 29.3328H20V26.0739H27.2405C29.154 26.0739 30.9743 26.7675 32.3689 28.0276C33.804 29.3246 34.6594 31.11 34.7689 33.0473C34.8906 35.1406 34.177 37.1395 32.75 38.6745C31.3473 40.189 29.3689 41.0551 27.3338 41.0551H26.604V37.8002H27.3338C28.4892 37.8002 29.6122 37.3077 30.4149 36.4417C31.2257 35.5674 31.6351 34.4346 31.5663 33.2402C31.4365 31.0115 29.5757 29.3287 27.2405 29.3287H23.2068V29.3328ZM23.2108 32.5876V42.0442H26.6V45.2991H20V44.9379V32.5876H23.2108ZM167.503 26.2791V26H168.524V26.2791H168.18V27.1616H167.843V26.2791H167.503ZM169.104 26L169.315 26.669L169.522 26H170V27.1616H169.692V26.3201L169.44 27.1616H169.177L168.926 26.3201V27.1616H168.617V26H169.104ZM72.3945 45.2908H75.7229V31.6887H72.3945V45.2908ZM72.3702 27.7033C72.3702 25.4418 75.7756 25.4418 75.7756 27.7033C75.7756 29.9649 72.3702 29.9649 72.3702 27.7033ZM46.5703 38.5185C46.5703 41.0961 48.3419 42.6311 50.5473 42.6311C55.7769 42.6311 55.7769 34.4305 50.5473 34.4305C48.3419 34.4305 46.5703 35.941 46.5703 38.5185ZM54.5243 31.7708H57.8161V45.2908H54.5284L54.5202 43.3166C53.7581 44.9091 51.6581 45.6766 50.1622 45.7013C46.1851 45.73 43.2419 43.2591 43.2419 38.5185C43.2419 33.8559 46.3189 31.4179 50.2433 31.4425C52.0392 31.4425 53.7581 32.2921 54.5202 33.6384L54.5243 31.7708ZM125.211 31.5533C129.03 31.5533 130.911 33.9175 130.911 37.9808V45.2908H127.583V37.9808C127.583 36.1954 126.844 34.685 125.044 34.685C123.244 34.685 122.126 36.2488 122.126 38.0383V45.2908H118.797V38.0342C118.797 36.2488 117.869 34.6275 116.04 34.6275C114.24 34.6275 113.174 36.2488 113.174 38.0342V45.2908H109.846V31.7175H113.178L113.174 33.3675C113.884 31.9925 115.437 31.4999 116.722 31.4999C118.331 31.4999 119.94 32.1608 120.703 34.0283C121.911 32.1033 123.463 31.5533 125.211 31.5533ZM133.437 45.2908H136.737V26.0821H133.437V45.2908ZM104.053 38.6663V31.7462H107.353V45.3196H104.158L104.163 43.4767C102.772 44.8516 101.486 45.5084 99.6053 45.5084C96.3864 45.5084 94.0391 43.0621 94.0391 38.8592V31.7462H97.3675V38.8346C97.3675 40.895 98.4864 42.4629 100.615 42.4629C102.662 42.4588 104.053 40.7308 104.053 38.6663ZM150.946 36.77C153.484 36.9301 156.703 37.4883 156.703 40.9812C156.703 43.3002 154.765 45.2991 150.917 45.2991C148.789 45.2991 146.661 44.9543 144.699 42.9513L146.337 40.6323C147.289 41.6707 149.474 42.4465 150.974 42.4711C152.227 42.4957 153.403 41.8595 153.403 40.8991C153.403 39.992 152.64 39.6185 150.727 39.5118C148.189 39.323 145.161 38.42 145.161 35.432C145.161 32.3947 148.38 31.3276 150.837 31.3276C152.937 31.3276 154.517 31.7298 156.074 33.0596L154.217 35.1939C153.265 34.3156 152.17 34.0201 150.889 34.0201C149.308 34.0201 148.433 34.5003 148.433 35.3253C148.437 36.1831 149.227 36.6633 150.946 36.77ZM139.274 45.2908H142.603V31.6887H139.274V45.2908ZM85.8378 31.5246C89.0039 31.5246 91.5378 33.9134 91.5378 38.1737V45.2908H88.2094V38.2025C88.2094 36.1421 87.0905 34.5741 84.9621 34.5741C82.9148 34.5741 81.5242 36.3063 81.5242 38.3667V45.2908H78.2242V31.7175H81.4148V33.5563C82.781 32.21 84.1432 31.5246 85.8378 31.5246ZM139.185 27.7033C139.185 25.4418 142.59 25.4418 142.59 27.7033C142.59 29.9649 139.185 29.9649 139.185 27.7033ZM37.4081 45.2908H40.7081V26.0821H37.4081V45.2908ZM61.7283 31.7708C62.3932 31.7626 62.7945 31.4055 62.8269 30.6462V26.0862L66.1553 26.0985V31.7708H69.8648V34.6563H66.1269V40.5092C66.1269 41.802 66.8364 42.4341 67.8702 42.4341C68.3891 42.4341 69.3661 42.27 69.8608 42.0237L69.8648 43.2099V45.0815C69.1351 45.3237 68.4621 45.4386 67.6512 45.4591C64.7323 45.57 62.8229 43.8912 62.8229 40.5133V34.6563H60.3135V31.7708H61.7283ZM159.366 31.7421C160.031 31.7339 160.437 31.3727 160.469 30.6134V26.0534L163.797 26.0657V31.738H167.507V34.6234H163.769V40.4763C163.769 41.7693 164.478 42.4013 165.516 42.4013C166.035 42.4013 167.013 42.2371 167.507 41.9868L167.511 43.173V45.0446C166.781 45.2867 166.113 45.4017 165.297 45.4222C162.378 45.533 160.469 43.8543 160.469 40.4763V34.6275H157.96V31.7421H159.366Z"
            fill="url(#paint0_linear_851_2148)"
          />
          <defs>
            <linearGradient
              id="paint0_linear_851_2148"
              x1="172.33"
              y1="56.4255"
              x2="19.5221"
              y2="38.2739"
              gradientUnits="userSpaceOnUse"
            >
              <stop stop-color="#0066FF" />
              <stop offset="1" stop-color="#B81AD6" />
            </linearGradient>
          </defs>
        </svg>